<svg width="24" height="24" viewBox="0 0 24 24" fill="none" xmlns="http://www.w3.org/2000/svg">
<g id="Others/error">
<g id="Icon">
<path d="M12 20C10.4177 20 8.87103 19.5308 7.55544 18.6518C6.23984 17.7727 5.21446 16.5233 4.60896 15.0615C4.00346 13.5997 3.84504 11.9911 4.15372 10.4393C4.4624 8.88743 5.22433 7.46197 6.34315 6.34315C7.46197 5.22433 8.88743 4.4624 10.4393 4.15372C11.9911 3.84504 13.5997 4.00346 15.0615 4.60896C16.5233 5.21446 17.7727 6.23985 18.6518 7.55544C19.5308 8.87103 20 10.4177 20 12C19.9976 14.121 19.154 16.1544 17.6542 17.6542C16.1544 19.154 14.121 19.9976 12 20ZM12 21C13.78 21 15.5201 20.4722 17.0001 19.4832C18.4802 18.4943 19.6337 17.0887 20.3149 15.4442C20.9961 13.7996 21.1743 11.99 20.8271 10.2442C20.4798 8.49836 19.6226 6.89471 18.364 5.63604C17.1053 4.37737 15.5016 3.5202 13.7558 3.17293C12.01 2.82566 10.2004 3.00389 8.55585 3.68508C6.91131 4.36627 5.50571 5.51982 4.51677 6.99987C3.52784 8.47991 3 10.22 3 12C3 14.3869 3.94821 16.6761 5.63604 18.364C7.32387 20.0518 9.61305 21 12 21Z" fill="#BD0F15"/>
<path d="M12 7.25C11.8011 7.25 11.6103 7.32902 11.4697 7.46967C11.329 7.61032 11.25 7.80109 11.25 8V12C11.25 12.1989 11.329 12.3897 11.4697 12.5303C11.6103 12.671 11.8011 12.75 12 12.75C12.1989 12.75 12.3897 12.671 12.5303 12.5303C12.671 12.3897 12.75 12.1989 12.75 12V8C12.75 7.80109 12.671 7.61032 12.5303 7.46967C12.3897 7.32902 12.1989 7.25 12 7.25Z" fill="#BD0F15"/>
<path d="M12 14C12.5523 14 13 14.4477 13 15C13 15.5523 12.5523 16 12 16C11.4477 16 11 15.5523 11 15C11 14.4477 11.4477 14 12 14Z" fill="#BD0F15"/>
</g>
</g>
</svg>
