<svg width="24" height="24" viewBox="0 0 24 24" fill="none" xmlns="http://www.w3.org/2000/svg">
<g id="Gateway">
<path id="Icon" d="M11.8614 11C10.2045 11 8.86139 12.3431 8.86139 14C8.86139 15.6569 10.2045 17 11.8614 17C13.5182 17 14.8614 15.6569 14.8614 14C14.8614 12.3431 13.5182 11 11.8614 11ZM11.8614 11V7M11.8614 7C12.6898 7 13.3614 6.32843 13.3614 5.5C13.3614 4.67157 12.6898 4 11.8614 4C11.033 4 10.3614 4.67157 10.3614 5.5C10.3614 6.32843 11.033 7 11.8614 7ZM14.3614 15.5L17.8255 17.5M8.8255 15.5L5.3614 17.5M20.7227 18.25C20.7227 19.0784 20.0511 19.75 19.2227 19.75C18.3942 19.75 17.7227 19.0784 17.7227 18.25C17.7227 17.4216 18.3942 16.75 19.2227 16.75C20.0511 16.75 20.7227 17.4216 20.7227 18.25ZM6 18.25C6 19.0784 5.32843 19.75 4.5 19.75C3.67157 19.75 3 19.0784 3 18.25C3 17.4216 3.67157 16.75 4.5 16.75C5.32843 16.75 6 17.4216 6 18.25Z" stroke="#1A1B1E"/>
</g>
</svg>
