<svg width="24" height="24" viewBox="0 0 24 24" fill="none" xmlns="http://www.w3.org/2000/svg">
<path d="M7.333 16.111H16.666V16.444C16.666 16.7066 16.6143 16.9667 16.5138 17.2094C16.4132 17.452 16.2659 17.6725 16.0802 17.8582C15.7051 18.2333 15.1964 18.444 14.666 18.444H9.333C8.80257 18.444 8.29386 18.2333 7.91879 17.8582C7.54371 17.4831 7.333 16.9744 7.333 16.444V16.111Z" fill="#212121"/>
<path d="M16.667 14.556H7.333L6.395 10.804C7.01145 11.3684 7.81721 11.681 8.653 11.68C9.53957 11.6779 10.3891 11.3244 11.0156 10.697C11.642 10.0697 11.9942 9.21957 11.995 8.333C11.9944 8.77244 12.0807 9.20765 12.2491 9.61355C12.4175 10.0195 12.6645 10.388 12.976 10.698C13.2858 11.0101 13.6544 11.2576 14.0606 11.4262C14.4667 11.5947 14.9023 11.681 15.342 11.68C16.1797 11.6821 16.9875 11.369 17.605 10.803L16.667 14.556Z" fill="#212121"/>
<path d="M12 9.112C12.8594 9.112 13.556 8.41536 13.556 7.556C13.556 6.69664 12.8594 6 12 6C11.1406 6 10.444 6.69664 10.444 7.556C10.444 8.41536 11.1406 9.112 12 9.112Z" fill="#212121"/>
<path d="M6.556 11.445C7.41536 11.445 8.112 10.7484 8.112 9.889C8.112 9.02964 7.41536 8.333 6.556 8.333C5.69664 8.333 5 9.02964 5 9.889C5 10.7484 5.69664 11.445 6.556 11.445Z" fill="#212121"/>
<path d="M17.445 11.445C18.3044 11.445 19.001 10.7484 19.001 9.889C19.001 9.02964 18.3044 8.333 17.445 8.333C16.5856 8.333 15.889 9.02964 15.889 9.889C15.889 10.7484 16.5856 11.445 17.445 11.445Z" fill="#212121"/>
</svg>
