<svg width="82" height="58" viewBox="0 0 82 58" fill="none" xmlns="http://www.w3.org/2000/svg">
<g id="KEUS logo" clip-path="url(#clip0_73_6653)">
<path id="KEUS logo_2" d="M46.8425 55.7072C45.3644 54.179 44.6264 51.9624 44.6285 49.0576V38.36H45.8687V48.9793C45.8687 51.6081 46.4882 53.5827 47.7271 54.9031C48.966 56.2234 50.7495 56.8824 53.0776 56.88C55.404 56.88 57.1875 56.221 58.4281 54.9031C59.6658 53.5847 60.2849 51.6149 60.2849 48.9793V38.36H61.5251V49.0576C61.5251 51.9638 60.7808 54.1803 59.2921 55.7072C57.8035 57.234 55.732 57.9983 53.0776 58C50.3993 58 48.3209 57.2357 46.8425 55.7072ZM14.4889 58L5.77331 48.2347L1.15364 52.89V58.0015H0V38.5019H1.15466V51.326L13.9354 38.5019H15.3366L6.5764 47.4026L15.9613 58.0005L14.4889 58ZM70.1038 57.2534C68.892 56.8856 67.7812 56.2472 66.8566 55.3873L67.4594 54.4173C68.3772 55.1803 69.4259 55.7732 70.5554 56.1675C71.8478 56.6433 73.2164 56.8833 74.5949 56.876C76.6989 56.876 78.2523 56.5216 79.255 55.813C79.7365 55.4848 80.1265 55.0411 80.3887 54.5232C80.651 54.0053 80.777 53.43 80.7551 52.8508C80.7761 52.4601 80.715 52.0694 80.5757 51.7034C80.4364 51.3374 80.2219 51.0042 79.9459 50.7248C79.3782 50.1867 78.6898 49.7901 77.9374 49.5677C76.8764 49.2575 75.7984 49.0075 74.7087 48.8191C73.4327 48.5949 72.1728 48.2891 70.9367 47.9036C70.0256 47.6113 69.2056 47.0913 68.5556 46.3935C67.864 45.5859 67.5138 44.5442 67.5782 43.4863C67.5721 42.7758 67.7336 42.0739 68.0497 41.4364C68.3658 40.799 68.8277 40.2437 69.3987 39.8151C70.6133 38.8345 72.3834 38.3429 74.7092 38.3401C75.9307 38.3437 77.145 38.5266 78.3126 38.8828C79.3724 39.1711 80.3669 39.6577 81.2425 40.3166L80.607 41.2855C79.7918 40.6685 78.8686 40.2064 77.8841 39.9224C76.8436 39.6125 75.7628 39.4562 74.6764 39.4586C72.7456 39.4586 71.2935 39.8256 70.3201 40.5597C69.8562 40.886 69.48 41.3202 69.2244 41.8243C68.9689 42.3284 68.8418 42.887 68.8544 43.4512C68.8316 43.8603 68.893 44.2697 69.0348 44.6544C69.1767 45.0392 69.396 45.3912 69.6795 45.6891C70.2545 46.2512 70.9578 46.6671 71.7295 46.9016C72.8221 47.2297 73.9322 47.4976 75.0546 47.7042C76.2881 47.9112 77.5055 48.2033 78.698 48.5785C79.5913 48.8711 80.3982 49.3777 81.0473 50.0535C81.7225 50.826 82.0668 51.8299 82.0067 52.8508C82.0279 53.5812 81.8638 54.3051 81.5294 54.956C81.195 55.6069 80.7011 56.164 80.093 56.5759C78.8152 57.4951 76.976 57.9551 74.5754 57.9557H74.5108C73.0129 57.9655 71.5238 57.7281 70.1044 57.2534H70.1038ZM24.9675 56.7102C23.4936 55.8956 22.2779 54.6892 21.4568 53.2267C20.5898 51.6784 20.1496 49.9305 20.1807 48.1594C20.1509 46.4004 20.5573 44.6611 21.3641 43.0946C22.1078 41.6503 23.2463 40.4429 24.6492 39.6106C26.0666 38.7984 27.674 38.3694 29.3108 38.3665C30.9475 38.3636 32.5564 38.787 33.9767 39.5944C35.3668 40.4172 36.5031 41.6025 37.2618 43.0214C38.0822 44.5587 38.4955 46.2777 38.4631 48.017V48.3435H21.3805C21.3764 49.8843 21.7778 51.3994 22.5449 52.7389C23.2771 54.009 24.3485 55.0537 25.6409 55.758C26.9951 56.4865 28.5149 56.8581 30.055 56.8373C31.32 56.8495 32.5739 56.6021 33.7379 56.1105C34.8364 55.6499 35.7942 54.9118 36.5161 53.9698L37.3033 54.7871C36.4335 55.8008 35.3418 56.6038 34.1115 57.1349C32.8324 57.6879 31.4502 57.9673 30.055 57.9547C28.2789 57.9865 26.5252 57.5575 24.9675 56.7102ZM25.398 40.4804C24.2224 41.1518 23.2491 42.1231 22.5792 43.2935C21.8698 44.5283 21.4706 45.9146 21.4153 47.3349H37.3028C37.2228 45.911 36.8038 44.5261 36.08 43.294C35.0183 41.5373 33.3082 40.2607 31.313 39.7354C29.3179 39.2101 27.195 39.4775 25.3954 40.4809L25.398 40.4804ZM20.007 24.9387C17.9382 23.0711 16.4827 20.6296 15.8291 17.931C15.1755 15.2324 15.3541 12.4012 16.3416 9.8045C16.4142 9.6166 16.5591 9.46503 16.7444 9.38314C16.9296 9.30126 17.1401 9.29576 17.3294 9.36786C17.5188 9.43996 17.6715 9.58375 17.754 9.7676C17.8365 9.95145 17.8421 10.1603 17.7694 10.3482C16.8963 12.6165 16.7225 15.0912 17.2702 17.4577C17.8179 19.8242 19.0623 21.9756 20.8452 23.6384C22.6282 25.3013 24.869 26.4005 27.283 26.7962C29.697 27.1919 32.175 26.8663 34.4021 25.8609C34.5879 25.7772 34.7996 25.7703 34.9905 25.8415C35.1815 25.9128 35.3361 26.0564 35.4204 26.2408C35.5047 26.4252 35.5117 26.6352 35.4399 26.8248C35.3681 27.0143 35.2234 27.1678 35.0376 27.2514C32.5775 28.361 29.8443 28.7331 27.1739 28.3219C24.5036 27.9107 22.0125 26.734 20.007 24.9367V24.9387ZM46.9547 27.2468C46.7857 27.1536 46.6582 27.0007 46.5977 26.8184C46.5373 26.6361 46.5483 26.4379 46.6285 26.2633C46.7088 26.0886 46.8524 25.9505 47.0307 25.8763C47.209 25.8021 47.409 25.7973 47.5907 25.8629C49.8185 26.8672 52.2968 27.1916 54.7107 26.7948C57.1247 26.3981 59.3653 25.2982 61.1479 23.6348C62.9305 21.9714 64.1746 19.8197 64.7221 17.453C65.2696 15.0864 65.0959 12.6116 64.2229 10.3431C64.1845 10.2496 64.1653 10.1494 64.1664 10.0484C64.1676 9.94739 64.189 9.84763 64.2295 9.75496C64.27 9.6623 64.3287 9.57858 64.4022 9.50873C64.4757 9.43887 64.5625 9.38428 64.6576 9.34816C64.7526 9.31203 64.854 9.2951 64.9557 9.29836C65.0574 9.30161 65.1574 9.32498 65.2499 9.36711C65.3425 9.40923 65.4255 9.46926 65.4944 9.54366C65.5632 9.61807 65.6163 9.70537 65.6507 9.80043C66.633 12.3504 66.8291 15.1327 66.214 17.7935C65.5988 20.4544 64.2003 22.8736 62.1962 24.7436C60.1921 26.6137 57.673 27.85 54.959 28.2956C52.2451 28.7411 49.4589 28.3757 46.9547 27.2458V27.2468ZM48.892 24.1021C48.7997 24.0628 48.7161 24.0059 48.6459 23.9345C48.5758 23.8632 48.5205 23.7788 48.4832 23.6863C48.4459 23.5937 48.4274 23.4948 48.4286 23.3952C48.4299 23.2955 48.4509 23.1971 48.4904 23.1054C48.53 23.0138 48.5874 22.9309 48.6593 22.8613C48.7312 22.7917 48.8162 22.7368 48.9094 22.6998C49.0027 22.6628 49.1023 22.6444 49.2028 22.6456C49.3032 22.6468 49.4024 22.6677 49.4947 22.707C50.9867 23.3398 52.6293 23.5387 54.2309 23.2805C55.8325 23.0223 57.3271 22.3176 58.5406 21.2485C59.754 20.1794 60.6362 18.7901 61.0843 17.2424C61.5324 15.6947 61.528 14.0525 61.0715 12.5073C61.0434 12.4116 61.0344 12.3114 61.0452 12.2123C61.0561 12.1132 61.0865 12.0173 61.1347 11.9298C61.1829 11.8424 61.248 11.7653 61.3262 11.7028C61.4045 11.6404 61.4943 11.5938 61.5907 11.5658C61.7854 11.5093 61.9946 11.5318 62.1726 11.6285C62.2606 11.6763 62.3384 11.7409 62.4013 11.8185C62.4642 11.8962 62.5112 11.9854 62.5393 12.081C63.0756 13.9023 63.0795 15.8373 62.5506 17.6607C62.0217 19.4841 60.9818 21.1209 59.5519 22.3805C58.122 23.6401 56.3609 24.4707 54.4738 24.7756C52.5867 25.0805 50.6511 24.8471 48.8925 24.1026L48.892 24.1021ZM22.3681 22.3306C20.9652 21.0635 19.9477 19.4319 19.4308 17.6206C18.9139 15.8093 18.9182 13.8906 19.4432 12.0816C19.5041 11.8929 19.6368 11.7354 19.8131 11.6425C19.9893 11.5496 20.1952 11.5287 20.3867 11.5843C20.5783 11.6399 20.7404 11.7676 20.8384 11.9401C20.9365 12.1126 20.9627 12.3163 20.9115 12.5078C20.455 14.0531 20.4506 15.6954 20.8987 17.2431C21.3468 18.7908 22.2291 20.1803 23.4426 21.2494C24.6561 22.3185 26.1508 23.0232 27.7525 23.2813C29.3542 23.5395 30.9969 23.3405 32.4889 22.7075C32.5815 22.6665 32.6814 22.6443 32.7827 22.642C32.884 22.6397 32.9848 22.6574 33.0792 22.6941C33.1736 22.7308 33.2596 22.7858 33.3324 22.8558C33.4052 22.9259 33.4632 23.0096 33.5031 23.102C33.543 23.1945 33.5639 23.2939 33.5647 23.3945C33.5655 23.4951 33.5462 23.5949 33.5078 23.688C33.4694 23.7811 33.4128 23.8657 33.3411 23.9369C33.2695 24.008 33.1844 24.0644 33.0906 24.1026C31.8429 24.6353 30.4985 24.9086 29.1402 24.9057C26.6396 24.9083 24.2267 23.9909 22.3681 22.3306ZM46.2644 14.8947C46.2636 14.0646 46.4264 13.2423 46.7436 12.4742L46.7718 12.4193C47.1529 11.7091 47.495 10.979 47.7968 10.2322C47.9804 9.68612 48.0766 9.11478 48.0817 8.53907C48.0794 6.67475 47.3323 4.88739 46.0043 3.56882C44.6762 2.25026 42.8755 1.50808 40.9969 1.50498H40.9856C39.1062 1.50686 37.3042 2.24839 35.975 3.56694C34.6457 4.88548 33.8975 6.6734 33.8947 8.53857C33.8999 9.11418 33.9957 9.68546 34.1786 10.2317C34.2909 10.575 34.8756 11.7535 35.2159 12.4188L35.2451 12.4737C35.607 13.3382 35.7711 14.2716 35.7256 15.2066C35.6801 16.1417 35.426 17.055 34.9818 17.8809C34.5375 18.7067 33.9142 19.4244 33.1567 19.9822C32.3992 20.5401 31.5264 20.9241 30.6012 21.1068C29.676 21.2894 28.7215 21.266 27.8066 21.0382C26.8916 20.8105 26.039 20.3841 25.3102 19.7898C24.5813 19.1956 23.9945 18.4482 23.5919 17.6016C23.1893 16.755 22.981 15.8303 22.982 14.8942C22.9794 14.197 23.0944 13.5044 23.3223 12.845C23.3916 12.6592 23.5314 12.5076 23.7118 12.4228C23.8922 12.3379 24.0989 12.3265 24.2876 12.391C24.4764 12.4555 24.6323 12.5907 24.7219 12.7677C24.8115 12.9448 24.8277 13.1496 24.7671 13.3383C24.5124 14.0744 24.4412 14.8607 24.5596 15.63C24.6781 16.3993 24.9825 17.1287 25.447 17.7558C25.9114 18.3828 26.5221 18.8888 27.2266 19.2305C27.9312 19.5722 28.7086 19.7395 29.4925 19.7179C30.2764 19.6963 31.0433 19.4865 31.7277 19.1066C32.4121 18.7266 32.9935 18.1878 33.4222 17.5361C33.8509 16.8845 34.1141 16.1395 34.1894 15.3648C34.2646 14.5902 34.1496 13.809 33.8542 13.0881C33.6712 12.729 32.9169 11.2505 32.7395 10.7027C32.506 10.0081 32.3849 9.28103 32.3808 8.54874C32.3827 6.2817 33.2911 4.10808 34.9066 2.50523C36.5221 0.902383 38.7126 0.00134688 40.9969 0L41.0087 0C43.2934 0.00107675 45.4844 0.901929 47.1004 2.50475C48.7164 4.10757 49.6255 6.28134 49.6279 8.54874C49.6234 9.281 49.5024 10.008 49.2692 10.7027C48.939 11.5166 48.5662 12.3128 48.1525 13.0881C47.9136 13.6626 47.7916 14.2783 47.7937 14.8998C47.8068 16.1688 48.324 17.3815 49.2329 18.2743C50.1418 19.167 51.369 19.6678 52.6478 19.6678C53.9267 19.6678 55.1538 19.167 56.0627 18.2743C56.9716 17.3815 57.4888 16.1688 57.502 14.8998C57.503 14.3686 57.4145 13.841 57.2401 13.3388C57.1795 13.1501 57.1957 12.9453 57.2853 12.7682C57.3749 12.5912 57.5308 12.456 57.7195 12.3915C57.9083 12.327 58.115 12.3385 58.2954 12.4233C58.4758 12.5081 58.6156 12.6597 58.6848 12.8455C58.9098 13.5056 59.0247 14.1978 59.0251 14.8947C59.0251 16.5746 58.3527 18.1858 57.1557 19.3737C55.9587 20.5616 54.3353 21.2289 52.6425 21.2289C50.9497 21.2289 49.3262 20.5616 48.1292 19.3737C46.9322 18.1858 46.2598 16.5746 46.2598 14.8947H46.2644Z" fill="white"/>
</g>
<defs>
<clipPath id="clip0_73_6653">
<rect width="82" height="58" fill="white"/>
</clipPath>
</defs>
</svg>
