<svg width="24" height="24" viewBox="0 0 24 24" fill="none" xmlns="http://www.w3.org/2000/svg">
<path fill-rule="evenodd" clip-rule="evenodd" d="M2.5 5C2.5 3.61929 3.61929 2.5 5 2.5H19C20.3807 2.5 21.5 3.61929 21.5 5V19C21.5 20.3807 20.3807 21.5 19 21.5H5C3.61929 21.5 2.5 20.3807 2.5 19V5ZM5 3.5C4.17157 3.5 3.5 4.17157 3.5 5V19C3.5 19.8284 4.17157 20.5 5 20.5H19C19.8284 20.5 20.5 19.8284 20.5 19V5C20.5 4.17157 19.8284 3.5 19 3.5H5ZM8 8.5C8.18939 8.5 8.36252 8.607 8.44721 8.77639L11.4472 14.7764C11.5707 15.0234 11.4706 15.3237 11.2236 15.4472C10.9766 15.5707 10.6763 15.4706 10.5528 15.2236L9.94098 14H6.05902L5.44721 15.2236C5.32372 15.4706 5.02338 15.5707 4.77639 15.4472C4.5294 15.3237 4.42929 15.0234 4.55279 14.7764L7.55279 8.77639C7.63748 8.607 7.81061 8.5 8 8.5ZM6.55902 13H9.44098L8 10.118L6.55902 13ZM15.2953 9.5C13.7063 9.5 12.5 10.6624 12.5 12C12.5 13.3376 13.7063 14.5 15.2953 14.5C16.2643 14.5 17.1051 14.0602 17.6031 13.4102C17.7711 13.191 18.0849 13.1494 18.3041 13.3174C18.5233 13.4853 18.5648 13.7992 18.3969 14.0184C17.7039 14.9228 16.566 15.5 15.2953 15.5C13.2444 15.5 11.5 13.9761 11.5 12C11.5 10.0239 13.2444 8.5 15.2953 8.5C16.566 8.5 17.7039 9.07719 18.3969 9.98162C18.5648 10.2008 18.5233 10.5147 18.3041 10.6826C18.0849 10.8506 17.7711 10.809 17.6031 10.5898C17.1051 9.93982 16.2643 9.5 15.2953 9.5Z" fill="#1A1B1E"/>
</svg>
