<svg width="24" height="24" viewBox="0 0 24 24" fill="none" xmlns="http://www.w3.org/2000/svg">
<path fill-rule="evenodd" clip-rule="evenodd" d="M11.9999 2.5C12.2761 2.5 12.4999 2.72386 12.4999 3V4C12.4999 4.27614 12.2761 4.5 11.9999 4.5C11.7238 4.5 11.4999 4.27614 11.4999 4V3C11.4999 2.72386 11.7238 2.5 11.9999 2.5ZM5.28243 5.28249C5.47769 5.08722 5.79428 5.08722 5.98954 5.28249L6.69665 5.98959C6.89191 6.18485 6.89191 6.50144 6.69665 6.6967C6.50138 6.89196 6.1848 6.89196 5.98954 6.6967L5.28243 5.98959C5.08717 5.79433 5.08717 5.47775 5.28243 5.28249ZM18.7175 5.28249C18.9127 5.47775 18.9127 5.79433 18.7175 5.98959L18.0104 6.6967C17.8151 6.89196 17.4985 6.89196 17.3032 6.6967C17.108 6.50144 17.108 6.18485 17.3032 5.98959L18.0104 5.28249C18.2056 5.08722 18.5222 5.08722 18.7175 5.28249ZM8.81797 8.81804C7.06061 10.5754 7.06061 13.4246 8.81797 15.182L9.36506 15.7291C9.59784 15.9619 9.79794 16.2212 9.96241 16.5H14.0375C14.202 16.2212 14.4021 15.9619 14.6348 15.7291L15.1819 15.182C16.9393 13.4246 16.9393 10.5754 15.1819 8.81804C13.4246 7.06068 10.5753 7.06068 8.81797 8.81804ZM14.791 17.2085C14.9293 16.925 15.1146 16.6635 15.3419 16.4362L15.889 15.8891C18.0369 13.7412 18.0369 10.2588 15.889 8.11094C13.7411 5.96305 10.2587 5.96305 8.11086 8.11094C5.96298 10.2588 5.96298 13.7412 8.11086 15.8891L8.65796 16.4362C8.88526 16.6635 9.07056 16.925 9.20888 17.2085C9.21163 17.2145 9.21449 17.2204 9.21747 17.2262C9.40168 17.6105 9.49995 18.0347 9.49995 18.469V19C9.49995 20.3807 10.6192 21.5 11.9999 21.5C13.3807 21.5 14.4999 20.3807 14.4999 19V18.469C14.4999 18.0347 14.5982 17.6105 14.7824 17.2262C14.7854 17.2204 14.7883 17.2145 14.791 17.2085ZM13.623 17.5H10.3769C10.4579 17.8139 10.4999 18.1392 10.4999 18.469V19C10.4999 19.8284 11.1715 20.5 11.9999 20.5C12.8284 20.5 13.4999 19.8284 13.4999 19V18.469C13.4999 18.1392 13.542 17.8139 13.623 17.5ZM2.5 11.9999C2.5 11.7238 2.72386 11.4999 3 11.4999H4C4.27614 11.4999 4.5 11.7238 4.5 11.9999C4.5 12.2761 4.27614 12.4999 4 12.4999H3C2.72386 12.4999 2.5 12.2761 2.5 11.9999ZM19.5 11.9999C19.5 11.7238 19.7239 11.4999 20 11.4999H21C21.2761 11.4999 21.5 11.7238 21.5 11.9999C21.5 12.2761 21.2761 12.4999 21 12.4999H20C19.7239 12.4999 19.5 12.2761 19.5 11.9999Z" fill="#1A1B1E"/>
</svg>
