<svg width="24" height="24" viewBox="0 0 24 24" fill="none" xmlns="http://www.w3.org/2000/svg">
<path fill-rule="evenodd" clip-rule="evenodd" d="M2 4.5H22V7C22 7.81791 21.6072 8.54408 21 9.00018V10.5C21 15.4706 16.9706 19.5 12 19.5C7.02944 19.5 3 15.4706 3 10.5V9.00018C2.39278 8.54408 2 7.81791 2 7V4.5ZM4 9.44999V10.5C4 13.9099 6.13337 16.8215 9.1382 17.9729C8.13773 17.1476 7.5 15.8983 7.5 14.5C7.5 12.0147 9.51472 10 12 10C14.4853 10 16.5 12.0147 16.5 14.5C16.5 15.8983 15.8623 17.1476 14.8618 17.9729C17.8666 16.8215 20 13.9099 20 10.5V9.44999C19.8384 9.48278 19.6712 9.5 19.5 9.5H4.5C4.32877 9.5 4.16156 9.48278 4 9.44999ZM3 5.5V7C3 7.82843 3.67157 8.5 4.5 8.5H19.5C20.3284 8.5 21 7.82843 21 7V5.5H3ZM12 11C10.067 11 8.5 12.567 8.5 14.5C8.5 16.433 10.067 18 12 18C13.933 18 15.5 16.433 15.5 14.5C15.5 12.567 13.933 11 12 11ZM12 14C11.7239 14 11.5 14.2239 11.5 14.5C11.5 14.7761 11.7239 15 12 15C12.2761 15 12.5 14.7761 12.5 14.5C12.5 14.2239 12.2761 14 12 14ZM10.5 14.5C10.5 13.6716 11.1716 13 12 13C12.8284 13 13.5 13.6716 13.5 14.5C13.5 15.3284 12.8284 16 12 16C11.1716 16 10.5 15.3284 10.5 14.5Z" fill="#1A1B1E"/>
</svg>
