<svg width="24" height="24" viewBox="0 0 24 24" fill="none" xmlns="http://www.w3.org/2000/svg">
<path fill-rule="evenodd" clip-rule="evenodd" d="M10.5 2.5C8.30435 2.5 6.5 4.33609 6.5 6.63158C6.5 7.82042 6.98534 8.88883 7.75985 9.64141L7.06298 10.3586C6.09938 9.42229 5.5 8.0971 5.5 6.63158C5.5 3.81117 7.72509 1.5 10.5 1.5C13.2749 1.5 15.5 3.81117 15.5 6.63158C15.5 8.0971 14.9006 9.42229 13.937 10.3586L13.2401 9.64141C14.0147 8.88883 14.5 7.82042 14.5 6.63158C14.5 4.33609 12.6957 2.5 10.5 2.5ZM9 7C9 6.17157 9.67157 5.5 10.5 5.5C11.3284 5.5 12 6.17157 12 7V11.5585C12.9127 11.6989 14.0222 12.0181 14.9891 12.4247C15.558 12.6639 16.0967 12.9414 16.5262 13.2437C16.9369 13.5329 17.3267 13.8991 17.4743 14.3419C18.0141 15.9615 17.872 17.8114 17.617 19.2144C17.4881 19.9235 17.3271 20.5352 17.1983 20.9701C17.1338 21.1879 17.0771 21.362 17.0362 21.4828C17.0157 21.5431 16.9992 21.5902 16.9875 21.6227L16.9739 21.6605L16.9701 21.6709L16.9689 21.674L16.9686 21.6749C16.9685 21.6751 16.9683 21.6755 16.5002 21.5L16.9686 21.6749L16.8467 22H10.266L10.116 21.8201L10.5002 21.5C10.116 21.8201 10.1161 21.8201 10.116 21.8201L10.1081 21.8105L10.0863 21.7842C10.0673 21.7612 10.0396 21.7275 10.0044 21.6843C9.93385 21.5979 9.83288 21.4732 9.7103 21.3189C9.46533 21.0108 9.13305 20.5836 8.78444 20.1082C8.43641 19.6336 8.06879 19.1064 7.75475 18.5991C7.44512 18.0989 7.1699 17.59 7.02599 17.158C6.70061 16.1813 7.09167 15.1798 7.57535 14.4138C8.00488 13.7335 8.56484 13.1457 9 12.7667V7ZM9 14.179C8.7965 14.4115 8.59501 14.672 8.42089 14.9477C7.98658 15.6355 7.79441 16.3007 7.97473 16.842C8.08068 17.16 8.30536 17.5886 8.60504 18.0728C8.90031 18.5498 9.2514 19.0539 9.59086 19.5168C9.92973 19.9789 10.2537 20.3955 10.4931 20.6967C10.5898 20.8184 10.6726 20.921 10.7368 21H16.1425C16.1711 20.9113 16.2039 20.806 16.2395 20.6861C16.3606 20.2773 16.5121 19.7015 16.6331 19.0356C16.8779 17.6886 16.9857 16.0385 16.5256 14.6581C16.4835 14.5317 16.3201 14.3216 15.9505 14.0614C15.5996 13.8143 15.1309 13.5691 14.6014 13.3465C13.7485 12.9878 12.7878 12.7082 12 12.5717V13H11V7C11 6.72386 10.7761 6.5 10.5 6.5C10.2239 6.5 10 6.72386 10 7V17H9V14.179Z" fill="#1A1B1E"/>
</svg>
