<svg width="24" height="24" viewBox="0 0 24 24" fill="none" xmlns="http://www.w3.org/2000/svg">
<path fill-rule="evenodd" clip-rule="evenodd" d="M2.5 2.5H8.56448V11.9381C8.56448 13.8615 7.30393 15.4878 5.56051 16.0849C7.34195 16.9919 8.56448 18.816 8.56448 20.9278V21.4897H2.5V2.5ZM3.5 15.3291H4.08675C6.01566 15.3291 7.56448 13.7984 7.56448 11.9381V3.5H3.5V15.3291ZM3.5 16.5V20.4897H7.5426C7.33321 18.404 5.64475 16.7278 3.5 16.5ZM15.4355 2.5H21.5V21.5H15.4355V20.9381C15.4355 18.8215 16.6636 16.9939 18.4517 16.089C16.7019 15.4954 15.4355 13.8659 15.4355 11.9381V2.5ZM20.5 15.3291H19.9132C17.9843 15.3291 16.4355 13.7984 16.4355 11.9381V3.5H20.5V15.3291ZM20.5 16.5103C18.3553 16.7381 16.6668 18.4143 16.4574 20.5H20.5V16.5103Z" fill="#1A1B1E"/>
</svg>
