<svg width="24" height="24" viewBox="0 0 24 24" fill="none" xmlns="http://www.w3.org/2000/svg">
<path fill-rule="evenodd" clip-rule="evenodd" d="M4.5 5.5C4.5 3.567 6.067 2 8 2H16C17.933 2 19.5 3.567 19.5 5.5V18.5C19.5 20.433 17.933 22 16 22H8C6.067 22 4.5 20.433 4.5 18.5V5.5ZM8 3C6.61929 3 5.5 4.11929 5.5 5.5V18.5C5.5 19.8807 6.61929 21 8 21H16C17.3807 21 18.5 19.8807 18.5 18.5V5.5C18.5 4.11929 17.3807 3 16 3H8ZM6.5 6.5H10.3136V11.9656C10.3136 12.9763 9.74171 13.8485 8.90576 14.2996C9.75526 14.8866 10.3136 15.856 10.3136 16.9599V17.4943H6.5V6.5ZM7.5 13.6273H7.60375C8.55728 13.6273 9.3136 12.8718 9.3136 11.9656V7.5H7.5V13.6273ZM7.5 14.7602V16.4943H9.26384C9.07776 15.6359 8.38773 14.9503 7.5 14.7602ZM13.6864 6.5H17.5V17.5H13.6864V16.9656C13.6864 15.8597 14.2468 14.8887 15.0989 14.3021C14.2604 13.8517 13.6864 12.9781 13.6864 11.9656V6.5ZM16.5 13.6273H16.3962C15.4427 13.6273 14.6864 12.8718 14.6864 11.9656V7.5H16.5V13.6273ZM16.5 14.7659C15.6123 14.956 14.9222 15.6416 14.7362 16.5H16.5V14.7659Z" fill="#1A1B1E"/>
</svg>
