<svg width="24" height="24" viewBox="0 0 24 24" fill="none" xmlns="http://www.w3.org/2000/svg">
<path fill-rule="evenodd" clip-rule="evenodd" d="M7 2.5H16.6754L22 6.75969V19.2071L18.7071 22.5H6.29289L2.5 18.7071V8H7V2.5ZM7 9H8V3.5H16.3246L21 7.24031V18.7929L18.2929 21.5H7L7 9ZM12.4714 8.6096C12.0079 8.98484 11.7065 9.53893 11.6527 10.2802L10.6553 10.2078C10.7275 9.21307 11.1471 8.39516 11.8421 7.83241C12.5298 7.27557 13.4473 7 14.472 7C15.5555 7 16.4475 7.31633 17.0745 7.88592C17.7041 8.4579 18.024 9.24778 18.024 10.104C18.024 10.9371 17.417 11.5853 16.8171 12.0127C16.5919 12.1731 16.3487 12.3165 16.1019 12.4404C16.3957 12.5797 16.6868 12.7462 16.9542 12.9407C17.613 13.4201 18.206 14.1322 18.206 15.088C18.206 15.991 17.889 16.8298 17.2378 17.4407C16.5881 18.0501 15.6541 18.388 14.5 18.388C13.4555 18.388 12.4987 18.1095 11.7732 17.5201C11.0398 16.9242 10.5881 16.0466 10.5015 14.9452L11.4985 14.8668C11.5659 15.7254 11.9052 16.3388 12.4038 16.7439C12.9103 17.1555 13.6265 17.388 14.5 17.388C15.4599 17.388 16.1289 17.1099 16.5537 16.7113C16.977 16.3142 17.206 15.753 17.206 15.088C17.206 14.5878 16.9 14.1379 16.3658 13.7493C15.8359 13.3637 15.1578 13.0994 14.6162 12.9704L14.232 12.8789V12.0135L14.6229 11.9261C15.0935 11.8208 15.7292 11.5599 16.2369 11.1983C16.767 10.8207 17.024 10.4329 17.024 10.104C17.024 9.50422 16.8049 8.9921 16.402 8.62608C15.9965 8.25767 15.3625 8 14.472 8C13.6207 8 12.9422 8.22843 12.4714 8.6096Z" fill="#1A1B1E"/>
</svg>
