<svg width="24" height="24" viewBox="0 0 24 24" fill="none" xmlns="http://www.w3.org/2000/svg">
<path fill-rule="evenodd" clip-rule="evenodd" d="M7 2.5H16.6754L22 6.75969V19.2071L18.7071 22.5H6.29289L2.5 18.7071V8H7V2.5ZM7 9H8V3.5H16.3246L21 7.24031V18.7929L18.2929 21.5H7L7 9ZM16.5 10.9618C16.5 9.44425 15.1142 8.28303 13.6062 8.53437C12.3972 8.73586 11.5 9.78465 11.5 11.0032V12.5123C12.1353 11.8641 13.0207 11.4618 14 11.4618C15.933 11.4618 17.5 13.0288 17.5 14.9618C17.5 16.8948 15.933 18.4618 14 18.4618C12.067 18.4618 10.5 16.8948 10.5 14.9618C10.5 14.8389 10.5063 14.7174 10.5187 14.5978C10.5065 14.5546 10.5 14.509 10.5 14.4618V11.0032C10.5 9.28874 11.7576 7.82866 13.4418 7.54797C15.5482 7.1969 17.5 8.8151 17.5 10.9618C17.5 11.238 17.2761 11.4618 17 11.4618C16.7239 11.4618 16.5 11.238 16.5 10.9618ZM14 12.4618C12.6193 12.4618 11.5 13.5811 11.5 14.9618C11.5 16.3425 12.6193 17.4618 14 17.4618C15.3807 17.4618 16.5 16.3425 16.5 14.9618C16.5 13.5811 15.3807 12.4618 14 12.4618Z" fill="#1A1B1E"/>
</svg>
