<svg width="24" height="24" viewBox="0 0 24 24" fill="none" xmlns="http://www.w3.org/2000/svg">
<path d="M12 7.5C9.64051 7.44963 7.30006 7.93228 5.153 8.912C3.442 9.767 2.5 10.864 2.5 12C2.5 13.136 3.442 14.233 5.153 15.088C7.30006 16.0677 9.64051 16.5504 12 16.5C14.3595 16.5504 16.6999 16.0677 18.847 15.088C20.558 14.233 21.5 13.136 21.5 12C21.5 10.864 20.558 9.767 18.847 8.912C16.6999 7.93228 14.3595 7.44963 12 7.5ZM12 7C17.523 7 22 9.239 22 12C22 14.761 17.523 17 12 17C6.477 17 2 14.761 2 12C2 9.239 6.477 7 12 7Z" fill="#1A1B1E"/>
<path d="M5.269 13.4H6.541C7.457 13.4 8.085 12.848 8.085 12C8.085 11.152 7.457 10.6 6.541 10.6H5.269V13.4ZM5.917 12.868V11.132H6.509C7.065 11.132 7.429 11.464 7.429 12C7.429 12.536 7.065 12.868 6.509 12.868H5.917Z" fill="#1A1B1E"/>
<path d="M10.6266 13.4H11.3066L10.0546 10.6H9.41463L8.16663 13.4H8.83063L9.07863 12.8H10.3786L10.6266 13.4ZM9.28662 12.308L9.73063 11.236L10.1746 12.308H9.28662Z" fill="#1A1B1E"/>
<path d="M11.5971 13.4H13.6491V12.872H12.2451V10.6H11.5971V13.4Z" fill="#1A1B1E"/>
<path d="M14.0112 13.4H14.6592V10.6H14.0112V13.4Z" fill="#1A1B1E"/>
<path d="M21.1 10.65H3.1C3.0337 10.65 2.97011 10.6237 2.92322 10.5768C2.87634 10.5299 2.85 10.4663 2.85 10.4C2.85 10.3337 2.87634 10.2701 2.92322 10.2232C2.97011 10.1763 3.0337 10.15 3.1 10.15H21.1C21.1663 10.15 21.2299 10.1763 21.2768 10.2232C21.3237 10.2701 21.35 10.3337 21.35 10.4C21.35 10.4663 21.3237 10.5299 21.2768 10.5768C21.2299 10.6237 21.1663 10.65 21.1 10.65Z" fill="#1A1B1E"/>
<path d="M21 13.85H3C2.9337 13.85 2.87011 13.8237 2.82322 13.7768C2.77634 13.7299 2.75 13.6663 2.75 13.6C2.75 13.5337 2.77634 13.4701 2.82322 13.4232C2.87011 13.3763 2.9337 13.35 3 13.35H21C21.0663 13.35 21.1299 13.3763 21.1768 13.4232C21.2237 13.4701 21.25 13.5337 21.25 13.6C21.25 13.6663 21.2237 13.7299 21.1768 13.7768C21.1299 13.8237 21.0663 13.85 21 13.85Z" fill="#1A1B1E"/>
<path d="M5.465 13.497H4.965V8.597H5.465V13.497Z" fill="#1A1B1E"/>
<path d="M13.415 13.5V7.23V13.5Z" fill="#1A1B1E"/>
<path d="M13.665 13.5H13.165V7.23H13.665V13.5Z" fill="#1A1B1E"/>
<path d="M17.065 13.7H16.565V8.13H17.065V13.7Z" fill="#1A1B1E"/>
</svg>
