<svg width="24" height="24" viewBox="0 0 24 24" fill="none" xmlns="http://www.w3.org/2000/svg">
<path fill-rule="evenodd" clip-rule="evenodd" d="M2.5 5C2.5 3.61929 3.61929 2.5 5 2.5H19C20.3807 2.5 21.5 3.61929 21.5 5V19C21.5 20.3807 20.3807 21.5 19 21.5H5C3.61929 21.5 2.5 20.3807 2.5 19V5ZM5 3.5C4.17157 3.5 3.5 4.17157 3.5 5V19C3.5 19.8284 4.17157 20.5 5 20.5H19C19.8284 20.5 20.5 19.8284 20.5 19V5C20.5 4.17157 19.8284 3.5 19 3.5H5ZM5.5 8.5H8C9.933 8.5 11.5 10.067 11.5 12C11.5 13.933 9.933 15.5 8 15.5H5.5V8.5ZM6.5 9.5V14.5H8C9.38071 14.5 10.5 13.3807 10.5 12C10.5 10.6193 9.38071 9.5 8 9.5H6.5ZM15.7953 9.5C14.2063 9.5 13 10.6624 13 12C13 13.3376 14.2063 14.5 15.7953 14.5C16.7643 14.5 17.6051 14.0602 18.1031 13.4102L18.8969 14.0184C18.2039 14.9228 17.066 15.5 15.7953 15.5C13.7444 15.5 12 13.9761 12 12C12 10.0239 13.7444 8.5 15.7953 8.5C17.066 8.5 18.2039 9.07719 18.8969 9.98162L18.1031 10.5898C17.6051 9.93982 16.7643 9.5 15.7953 9.5Z" fill="#1A1B1E"/>
</svg>
