<svg width="24" height="24" viewBox="0 0 24 24" fill="none" xmlns="http://www.w3.org/2000/svg">
<path fill-rule="evenodd" clip-rule="evenodd" d="M11.8614 4.5C11.3091 4.5 10.8614 4.94772 10.8614 5.5C10.8614 6.05228 11.3091 6.5 11.8614 6.5C12.4137 6.5 12.8614 6.05228 12.8614 5.5C12.8614 4.94772 12.4137 4.5 11.8614 4.5ZM9.86139 5.5C9.86139 4.39543 10.7568 3.5 11.8614 3.5C12.966 3.5 13.8614 4.39543 13.8614 5.5C13.8614 6.43192 13.224 7.21497 12.3614 7.43699V10.5354C14.0575 10.7781 15.3614 12.2368 15.3614 14C15.3614 14.4767 15.2661 14.9312 15.0935 15.3453L17.7607 16.8852C18.1257 16.4944 18.6456 16.25 19.2227 16.25C20.3272 16.25 21.2227 17.1454 21.2227 18.25C21.2227 19.3546 20.3272 20.25 19.2227 20.25C18.1181 20.25 17.2227 19.3546 17.2227 18.25C17.2227 18.0823 17.2433 17.9194 17.2822 17.7637L14.5805 16.2039C13.9388 16.9946 12.9591 17.5 11.8614 17.5C10.6668 17.5 9.61191 16.9015 8.98036 15.9879L6.3559 17.5032C6.44884 17.7339 6.5 17.986 6.5 18.25C6.5 19.3546 5.60457 20.25 4.5 20.25C3.39543 20.25 2.5 19.3546 2.5 18.25C2.5 17.1454 3.39543 16.25 4.5 16.25C4.97619 16.25 5.41351 16.4164 5.75697 16.6943L8.53464 15.0906C8.4222 14.7474 8.36139 14.3808 8.36139 14C8.36139 12.2368 9.66524 10.7781 11.3614 10.5354V7.43699C10.4988 7.21497 9.86139 6.43192 9.86139 5.5ZM11.8614 11.5C10.4807 11.5 9.36139 12.6193 9.36139 14C9.36139 15.3807 10.4807 16.5 11.8614 16.5C13.2421 16.5 14.3614 15.3807 14.3614 14C14.3614 12.6193 13.2421 11.5 11.8614 11.5ZM4.5 17.25C3.94772 17.25 3.5 17.6977 3.5 18.25C3.5 18.8023 3.94772 19.25 4.5 19.25C5.05228 19.25 5.5 18.8023 5.5 18.25C5.5 17.6977 5.05228 17.25 4.5 17.25ZM19.2227 17.25C18.6704 17.25 18.2227 17.6977 18.2227 18.25C18.2227 18.8023 18.6704 19.25 19.2227 19.25C19.7749 19.25 20.2227 18.8023 20.2227 18.25C20.2227 17.6977 19.7749 17.25 19.2227 17.25Z" fill="#1A1B1E"/>
</svg>
