<svg width="24" height="24" viewBox="0 0 24 24" fill="none" xmlns="http://www.w3.org/2000/svg">
<path fill-rule="evenodd" clip-rule="evenodd" d="M2 4.5C2 3.11929 3.11929 2 4.5 2H19.5C20.8807 2 22 3.11929 22 4.5V19.5C22 20.8807 20.8807 22 19.5 22H4.5C3.11929 22 2 20.8807 2 19.5V4.5ZM3 7V17H4L4 7H3ZM3 18H5L5 6H3V4.5C3 3.67157 3.67157 3 4.5 3H6V5H18V3H19.5C20.3284 3 21 3.67157 21 4.5V6H19V18H21V19.5C21 20.3284 20.3284 21 19.5 21H18V19H6V21H4.5C3.67157 21 3 20.3284 3 19.5V18ZM7 21H17V20H7V21ZM21 17V7H20V17H21ZM17 3H7V4H17V3ZM6 6H18V18H6V6ZM7 7V17H17V7H7ZM16 10H8V9H16V10ZM16 12.5H8V11.5H16V12.5ZM16 15H8V14H16V15Z" fill="#1A1B1E"/>
</svg>
