<svg width="24" height="24" viewBox="0 0 24 24" fill="none" xmlns="http://www.w3.org/2000/svg">
<path fill-rule="evenodd" clip-rule="evenodd" d="M12 2.5C6.75329 2.5 2.5 6.75329 2.5 12C2.5 17.2467 6.75329 21.5 12 21.5C17.2467 21.5 21.5 17.2467 21.5 12C21.5 6.75329 17.2467 2.5 12 2.5ZM1.5 12C1.5 6.20101 6.20101 1.5 12 1.5C17.799 1.5 22.5 6.20101 22.5 12C22.5 17.799 17.799 22.5 12 22.5C6.20101 22.5 1.5 17.799 1.5 12ZM10 5.5C10 4.39543 10.8954 3.5 12 3.5C13.1046 3.5 14 4.39543 14 5.5V6.5H14.5V7.5H12.5V9.5H11.5V7.5H9.5V6.5H10V5.5ZM11 6.5H13V5.5C13 4.94772 12.5523 4.5 12 4.5C11.4477 4.5 11 4.94772 11 5.5V6.5ZM6.5 10V9.5H7.5V11.5H9.5V12.5H7.5V14.5H6.5V14H5.5C4.39543 14 3.5 13.1046 3.5 12C3.5 10.8954 4.39543 10 5.5 10H6.5ZM6.5 11H5.5C4.94772 11 4.5 11.4477 4.5 12C4.5 12.5523 4.94772 13 5.5 13H6.5V11ZM16.5 9.5H17.5V10H18.5C19.6046 10 20.5 10.8954 20.5 12C20.5 13.1046 19.6046 14 18.5 14H17.5V14.5H16.5V12.5H14.5V11.5H16.5V9.5ZM17.5 13H18.5C19.0523 13 19.5 12.5523 19.5 12C19.5 11.4477 19.0523 11 18.5 11H17.5V13ZM11 12C11 11.4477 11.4477 11 12 11C12.5523 11 13 11.4477 13 12C13 12.5523 12.5523 13 12 13C11.4477 13 11 12.5523 11 12ZM11.5 16.5V14.5H12.5V16.5H14.5V17.5H14V18.5C14 19.6046 13.1046 20.5 12 20.5C10.8954 20.5 10 19.6046 10 18.5V17.5H9.5V16.5H11.5ZM11 17.5V18.5C11 19.0523 11.4477 19.5 12 19.5C12.5523 19.5 13 19.0523 13 18.5V17.5H11Z" fill="#1A1B1E"/>
</svg>
