<svg width="24" height="24" viewBox="0 0 24 24" fill="none" xmlns="http://www.w3.org/2000/svg">
<path fill-rule="evenodd" clip-rule="evenodd" d="M4.5 5.5C4.5 3.567 6.067 2 8 2H16C17.933 2 19.5 3.567 19.5 5.5V18.5C19.5 20.433 17.933 22 16 22H8C6.067 22 4.5 20.433 4.5 18.5V5.5ZM8 3C6.61929 3 5.5 4.11929 5.5 5.5V18.5C5.5 19.8807 6.61929 21 8 21H16C17.3807 21 18.5 19.8807 18.5 18.5V5.5C18.5 4.11929 17.3807 3 16 3H8ZM6.5 9.22222C6.5 7.71878 7.71878 6.5 9.22222 6.5H14.7778C16.2812 6.5 17.5 7.71878 17.5 9.22222V14.4913C17.5001 14.4968 17.5001 14.5023 17.5 14.5077V14.7778C17.5 16.2812 16.2812 17.5 14.7778 17.5H9.22222C7.79083 17.5 6.61747 16.3952 6.50829 14.9919C6.50765 14.9851 6.50714 14.9782 6.50678 14.9714C6.50229 14.9074 6.5 14.8429 6.5 14.7778V9.22222ZM7.55332 15.2047C7.74324 15.9493 8.41842 16.5 9.22222 16.5H14.7778C15.7289 16.5 16.5 15.7289 16.5 14.7778V14.6492C16.2681 14.3104 15.8411 13.7951 15.3306 13.3486C14.7378 12.8302 14.1402 12.5 13.6667 12.5C13.4276 12.5 13.0143 12.598 12.4547 12.8001C11.9121 12.9961 11.285 13.2698 10.6418 13.5764C9.50625 14.1176 8.34489 14.7493 7.55332 15.2047ZM16.5 13.0845C16.3408 12.919 16.1692 12.7536 15.9889 12.5958C15.3641 12.0494 14.5265 11.5 13.6667 11.5C13.2391 11.5 12.6832 11.6543 12.115 11.8596C11.5296 12.071 10.8701 12.3598 10.2116 12.6736C9.24699 13.1334 8.26788 13.6549 7.5 14.0852V9.22222C7.5 8.27107 8.27107 7.5 9.22222 7.5H14.7778C15.7289 7.5 16.5 8.27106 16.5 9.22222V13.0845ZM9.77778 9.72222C9.7471 9.72222 9.72222 9.7471 9.72222 9.77778C9.72222 9.80846 9.7471 9.83333 9.77778 9.83333C9.80846 9.83333 9.83333 9.80846 9.83333 9.77778C9.83333 9.7471 9.80846 9.72222 9.77778 9.72222ZM8.72222 9.77778C8.72222 9.19481 9.19481 8.72222 9.77778 8.72222C10.3607 8.72222 10.8333 9.19481 10.8333 9.77778C10.8333 10.3607 10.3607 10.8333 9.77778 10.8333C9.19481 10.8333 8.72222 10.3607 8.72222 9.77778Z" fill="#1A1B1E"/>
</svg>
