<svg width="24" height="24" viewBox="0 0 24 24" fill="none" xmlns="http://www.w3.org/2000/svg">
<path fill-rule="evenodd" clip-rule="evenodd" d="M10.9613 2.5H13.0387C14.8915 2.49999 16.3332 2.49999 17.4557 2.65091C18.6004 2.80481 19.4878 3.12385 20.182 3.81802C20.8762 4.51219 21.1952 5.39959 21.3491 6.54429C21.5 7.6668 21.5 9.10845 21.5 10.9613V13.0387C21.5 14.8915 21.5 16.3332 21.3491 17.4557C21.1952 18.6004 20.8762 19.4878 20.182 20.182C19.4878 20.8762 18.6004 21.1952 17.4557 21.3491C16.3332 21.5 14.8915 21.5 13.0387 21.5H10.9613C9.10845 21.5 7.6668 21.5 6.54429 21.3491C5.39959 21.1952 4.51219 20.8762 3.81802 20.182C3.12385 19.4878 2.80481 18.6004 2.65091 17.4557C2.49999 16.3332 2.49999 14.8915 2.5 13.0387V10.9613C2.49999 9.10846 2.49999 7.6668 2.65091 6.54429C2.80481 5.39959 3.12385 4.51219 3.81802 3.81802C4.51219 3.12385 5.39959 2.80481 6.54429 2.65091C7.6668 2.49999 9.10846 2.49999 10.9613 2.5ZM6.67754 3.64199C5.64373 3.78098 5.00253 4.04772 4.52513 4.52513C4.04772 5.00253 3.78098 5.64373 3.64199 6.67754C3.50106 7.72573 3.5 9.10025 3.5 11V11.5H11.5V3.5H11C9.10025 3.5 7.72573 3.50106 6.67754 3.64199ZM11.5 12.5H3.5V13C3.5 14.8998 3.50106 16.2743 3.64199 17.3225C3.78098 18.3563 4.04772 18.9975 4.52513 19.4749C5.00253 19.9523 5.64373 20.219 6.67754 20.358C7.72573 20.4989 9.10025 20.5 11 20.5H11.5V12.5ZM12.5 12.5H20.5V13C20.5 14.8998 20.4989 16.2743 20.358 17.3225C20.219 18.3563 19.9523 18.9975 19.4749 19.4749C18.9975 19.9523 18.3563 20.219 17.3225 20.358C16.2743 20.4989 14.8998 20.5 13 20.5H12.5V12.5ZM20.5 11.5H12.5V3.5H13C14.8998 3.5 16.2743 3.50106 17.3225 3.64199C18.3563 3.78098 18.9975 4.04772 19.4749 4.52513C19.9523 5.00253 20.219 5.64373 20.358 6.67754C20.4989 7.72573 20.5 9.10025 20.5 11V11.5Z" fill="#1A1B1E"/>
</svg>
