<svg width="24" height="24" viewBox="0 0 24 24" fill="none" xmlns="http://www.w3.org/2000/svg">
<path fill-rule="evenodd" clip-rule="evenodd" d="M2 3.5C2 2.94772 2.44772 2.5 3 2.5H21C21.5523 2.5 22 2.94772 22 3.5C22 4.05228 21.5523 4.5 21 4.5H20V18.0854C20.5826 18.2913 21 18.8469 21 19.5C21 20.3284 20.3284 21 19.5 21C18.6716 21 18 20.3284 18 19.5C18 18.8469 18.4174 18.2913 19 18.0854V16.5H5L5 18.0854C5.5826 18.2913 6 18.8469 6 19.5C6 20.3284 5.32843 21 4.5 21C3.67157 21 3 20.3284 3 19.5C3 18.8469 3.4174 18.2913 4 18.0854L4 4.5H3C2.44772 4.5 2 4.05229 2 3.5ZM5 4.5V6.5H19V4.5H5ZM5 13.5V15.5H19V13.5H5ZM5 10.5V12.5H19V10.5H5ZM5 7.5V9.5H19V7.5H5ZM4.5 19C4.22386 19 4 19.2239 4 19.5C4 19.7761 4.22386 20 4.5 20C4.77614 20 5 19.7761 5 19.5C5 19.2239 4.77614 19 4.5 19ZM19.5 19C19.2239 19 19 19.2239 19 19.5C19 19.7761 19.2239 20 19.5 20C19.7761 20 20 19.7761 20 19.5C20 19.2239 19.7761 19 19.5 19Z" fill="#1A1B1E"/>
</svg>
