<svg width="24" height="24" viewBox="0 0 24 24" fill="none" xmlns="http://www.w3.org/2000/svg">
<path fill-rule="evenodd" clip-rule="evenodd" d="M2 4.5C2 3.94772 2.44772 3.5 3 3.5H21C21.5523 3.5 22 3.94772 22 4.5C22 5.05228 21.5523 5.5 21 5.5H20V19.5C20 19.7761 19.7761 20 19.5 20H15.5C15.2239 20 15 19.7761 15 19.5V5.5H9V19.5C9 19.7761 8.77614 20 8.5 20H4.5C4.36739 20 4.24021 19.9473 4.14645 19.8536C4.05268 19.7598 4 19.6326 4 19.5L4 5.5H3C2.44772 5.5 2 5.05229 2 4.5ZM5 5.5L5 19H6L6 5.5H5ZM7 5.5L7 19H8V5.5H7ZM16 5.5V19H17L17 5.5H16ZM18 5.5L18 19H19V5.5H18Z" fill="#1A1B1E"/>
</svg>
