<svg width="24" height="24" viewBox="0 0 24 24" fill="none" xmlns="http://www.w3.org/2000/svg">
<path fill-rule="evenodd" clip-rule="evenodd" d="M1.97607 8.5C1.97607 7.11929 3.09536 6 4.47607 6H19.5237C20.9044 6 22.0237 7.11929 22.0237 8.5V16.5C22.0237 17.8807 20.9044 19 19.5237 19H4.47608C3.09536 19 1.97607 17.8807 1.97607 16.5V8.5ZM11.4999 7H4.47607C3.64765 7 2.97607 7.67157 2.97607 8.5V10H11.4999V7ZM12.4999 10V7H19.5237C20.3521 7 21.0237 7.67157 21.0237 8.5V10H12.4999ZM11.4999 11H2.97607V14H11.4999V11ZM12.4999 14V11H21.0237V14H12.4999ZM11.4999 15H2.97607V16.5C2.97607 17.3284 3.64765 18 4.47608 18H11.4999V15ZM12.4999 15H21.0237V16.5C21.0237 17.3284 20.3521 18 19.5237 18H12.4999V15Z" fill="#1A1B1E"/>
</svg>
