<svg width="24" height="24" viewBox="0 0 24 24" fill="none" xmlns="http://www.w3.org/2000/svg">
<path d="M18.75 7.5C19.3023 7.5 19.75 7.05228 19.75 6.5C19.75 5.94772 19.3023 5.5 18.75 5.5C18.1977 5.5 17.75 5.94772 17.75 6.5C17.75 7.05228 18.1977 7.5 18.75 7.5Z" fill="#1A1B1E"/>
<path d="M15.75 6.5C15.75 7.05228 15.3023 7.5 14.75 7.5C14.1977 7.5 13.75 7.05228 13.75 6.5C13.75 5.94772 14.1977 5.5 14.75 5.5C15.3023 5.5 15.75 5.94772 15.75 6.5Z" fill="#1A1B1E"/>
<path d="M10.75 7.5C11.3023 7.5 11.75 7.05228 11.75 6.5C11.75 5.94772 11.3023 5.5 10.75 5.5C10.1977 5.5 9.75 5.94772 9.75 6.5C9.75 7.05228 10.1977 7.5 10.75 7.5Z" fill="#1A1B1E"/>
<path d="M19.75 18C19.75 18.5523 19.3023 19 18.75 19C18.1977 19 17.75 18.5523 17.75 18C17.75 17.4477 18.1977 17 18.75 17C19.3023 17 19.75 17.4477 19.75 18Z" fill="#1A1B1E"/>
<path d="M14.75 19C15.3023 19 15.75 18.5523 15.75 18C15.75 17.4477 15.3023 17 14.75 17C14.1977 17 13.75 17.4477 13.75 18C13.75 18.5523 14.1977 19 14.75 19Z" fill="#1A1B1E"/>
<path d="M11.75 18C11.75 18.5523 11.3023 19 10.75 19C10.1977 19 9.75 18.5523 9.75 18C9.75 17.4477 10.1977 17 10.75 17C11.3023 17 11.75 17.4477 11.75 18Z" fill="#1A1B1E"/>
<path d="M6.75 19C7.30228 19 7.75 18.5523 7.75 18C7.75 17.4477 7.30228 17 6.75 17C6.19772 17 5.75 17.4477 5.75 18C5.75 18.5523 6.19772 19 6.75 19Z" fill="#1A1B1E"/>
<path d="M5.75 8.5C5.75 9.05228 5.30228 9.5 4.75 9.5C4.19772 9.5 3.75 9.05228 3.75 8.5C3.75 7.94772 4.19772 7.5 4.75 7.5C5.30228 7.5 5.75 7.94772 5.75 8.5Z" fill="#1A1B1E"/>
<path d="M8.75 11.5C9.30228 11.5 9.75 11.0523 9.75 10.5C9.75 9.94772 9.30228 9.5 8.75 9.5C8.19772 9.5 7.75 9.94772 7.75 10.5C7.75 11.0523 8.19772 11.5 8.75 11.5Z" fill="#1A1B1E"/>
<path d="M13.75 12.5C13.75 13.0523 13.3023 13.5 12.75 13.5C12.1977 13.5 11.75 13.0523 11.75 12.5C11.75 11.9477 12.1977 11.5 12.75 11.5C13.3023 11.5 13.75 11.9477 13.75 12.5Z" fill="#1A1B1E"/>
<path fill-rule="evenodd" clip-rule="evenodd" d="M1.75 3V10.2956L10.3034 15H1.75V21H22.25V15H22.0853L13.52 10H22.25V3H1.75ZM21.25 4H3.24178L11.807 9H21.25V4ZM2.75 19C3.30228 19 3.75 18.5523 3.75 18C3.75 17.4477 3.30228 17 2.75 17V16H21.25V20H2.75V19ZM20.1017 15L11.5365 10H11.25V9.83277L2.75 4.87084V9.70436L12.3784 15H14.8838C14.7987 14.8529 14.75 14.6821 14.75 14.5C14.75 13.9477 15.1977 13.5 15.75 13.5C16.3023 13.5 16.75 13.9477 16.75 14.5C16.75 14.6821 16.7013 14.8529 16.6162 15H20.1017Z" fill="#1A1B1E"/>
</svg>
