<svg width="24" height="24" viewBox="0 0 24 24" fill="none" xmlns="http://www.w3.org/2000/svg">
<path fill-rule="evenodd" clip-rule="evenodd" d="M4.2207 7.47133C3.44463 8.80157 3 10.3489 3 12C3 16.9706 7.02944 21 12 21C14.8176 21 17.3327 19.7053 18.983 17.6783C18.774 17.7037 18.5416 17.7303 18.289 17.7569C17.1355 17.8783 15.5548 18 13.8496 18C12.1444 18 10.5637 17.8783 9.41025 17.7569C8.83305 17.6961 8.36167 17.6353 8.03382 17.5896C7.92883 17.5749 7.83853 17.5618 7.76415 17.5507C7.50087 17.5565 7.23573 17.459 7.03482 17.2581C6.6443 16.8675 6.6443 16.2344 7.03482 15.8439L15.5691 7.30958C15.3963 7.28921 15.2095 7.26824 15.0102 7.24725C13.8343 7.12347 12.2275 7 10.5 7C8.77247 7 7.16574 7.12347 5.98984 7.24725C5.40238 7.30909 4.92363 7.37088 4.59254 7.41708C4.4326 7.43939 4.30719 7.45806 4.2207 7.47133ZM4.98929 6.35592C5.24901 6.32334 5.54991 6.28804 5.88516 6.25275C7.08426 6.12653 8.72753 6 10.5 6C12.2725 6 13.9157 6.12653 15.1148 6.25275C15.7149 6.31591 16.2049 6.37912 16.5457 6.42667C16.7161 6.45045 16.8492 6.47032 16.9403 6.48433C16.9858 6.49133 17.0208 6.49687 17.0447 6.5007L17.072 6.50512L17.0813 6.50665C17.0813 6.50666 17.0821 6.50679 17.0765 6.54086C17.2315 6.58655 17.3777 6.67056 17.5 6.79289C17.8905 7.18342 17.8905 7.81658 17.5 8.20711L9.00181 16.7053C9.16111 16.724 9.33257 16.7432 9.51493 16.7624C10.6452 16.8813 12.1894 17 13.8496 17C15.5098 17 17.0541 16.8813 18.1843 16.7624C18.7489 16.7029 19.209 16.6435 19.5272 16.5991C19.615 16.5869 19.692 16.5758 19.7573 16.5661C20.547 15.2275 21 13.6667 21 12C21 7.02944 16.9706 3 12 3C9.16661 3 6.63903 4.30932 4.98929 6.35592ZM2 12C2 6.47715 6.47715 2 12 2C17.5228 2 22 6.47715 22 12C22 17.5228 17.5228 22 12 22C6.47715 22 2 17.5228 2 12Z" fill="#1A1B1E"/>
</svg>
